<?xml version="1.0" encoding="UTF-8" standalone="no"?>
<!DOCTYPE svg PUBLIC "-//W3C//DTD SVG 1.0//EN"
 "http://www.w3.org/TR/2001/REC-SVG-20010904/DTD/svg10.dtd" [
 <!ATTLIST svg xmlns:xlink CDATA #FIXED "http://www.w3.org/1999/xlink">
]>
<!-- Generated by Graphviz version 2.20.2 (Tue Jul 29 16:40:41 UTC 2008)
     For user: (liamc) Liam Clancy -->
<!-- Title: models_diagram Pages: 1 -->
<svg width="776pt" height="452pt"
 viewBox="0.00 0.00 776.00 452.00" xmlns="http://www.w3.org/2000/svg" xmlns:xlink="http://www.w3.org/1999/xlink">
<g id="graph0" class="graph" transform="scale(1 1) rotate(0) translate(4 448)">
<title>models_diagram</title>
<polygon style="fill:white;stroke:white;" points="-4,4 -4,-448 772,-448 772,4 -4,4"/>
<!-- _diagram_info -->
<g id="node1" class="node"><title>_diagram_info</title>
<text text-anchor="start" x="7.5" y="-397.4" style="font-family:Times New Roman;font-size:11.00;">Models diagram</text>
<text text-anchor="start" x="7.5" y="-380.4" style="font-family:Times New Roman;font-size:11.00;">Date: Jul 13 2009 &#45; 11:44</text>
<text text-anchor="start" x="7.5" y="-363.4" style="font-family:Times New Roman;font-size:11.00;">Migration version: 20090601000001</text>
<text text-anchor="start" x="7.5" y="-346.4" style="font-family:Times New Roman;font-size:11.00;">Generated by RailRoad 0.5.0</text>
</g>
<!-- JavascriptTestResult -->
<g id="node2" class="node"><title>JavascriptTestResult</title>
<polyline style="fill:none;stroke:black;" points="270,-0 381,-0 "/>
<path style="fill:none;stroke:black;" d="M381,-0C387,-0 393,-6 393,-12"/>
<polyline style="fill:none;stroke:black;" points="393,-12 393,-140 "/>
<path style="fill:none;stroke:black;" d="M393,-140C393,-146 387,-152 381,-152"/>
<polyline style="fill:none;stroke:black;" points="381,-152 270,-152 "/>
<path style="fill:none;stroke:black;" d="M270,-152C264,-152 258,-146 258,-140"/>
<polyline style="fill:none;stroke:black;" points="258,-140 258,-12 "/>
<path style="fill:none;stroke:black;" d="M258,-12C258,-6 264,-0 270,-0"/>
<text text-anchor="middle" x="325" y="-134.9" style="font-family:Times New Roman;font-size:11.00;">JavascriptTestResult</text>
<polyline style="fill:none;stroke:black;" points="258,-127 393,-127 "/>
<text text-anchor="start" x="265.5" y="-109.9" style="font-family:Times New Roman;font-size:11.00;">suite :string</text>
<text text-anchor="start" x="265.5" y="-92.9" style="font-family:Times New Roman;font-size:11.00;">passed :integer</text>
<text text-anchor="start" x="265.5" y="-75.9" style="font-family:Times New Roman;font-size:11.00;">failed :integer</text>
<text text-anchor="start" x="265.5" y="-58.9" style="font-family:Times New Roman;font-size:11.00;">ignored :integer</text>
<text text-anchor="start" x="265.5" y="-41.9" style="font-family:Times New Roman;font-size:11.00;">results_xml :text</text>
<text text-anchor="start" x="265.5" y="-24.9" style="font-family:Times New Roman;font-size:11.00;">created_at :datetime</text>
<text text-anchor="start" x="265.5" y="-7.9" style="font-family:Times New Roman;font-size:11.00;">updated_at :datetime</text>
</g>
<!-- LitmusResource -->
<g id="node3" class="node"><title>LitmusResource</title>
<polygon style="fill:none;stroke:black;" points="463,-205 463,-255 572,-255 572,-205 463,-205"/>
<text text-anchor="middle" x="517" y="-237.9" style="font-family:Times New Roman;font-size:11.00;">LitmusResource</text>
<polyline style="fill:none;stroke:black;" points="463,-230 572,-230 "/>
<text text-anchor="middle" x="517" y="-212.9" style="font-family:Times New Roman;font-size:11.00;"> </text>
</g>
<!-- LitmusTestPage -->
<g id="node4" class="node"><title>LitmusTestPage</title>
<polyline style="fill:none;stroke:black;" points="270,-188 381,-188 "/>
<path style="fill:none;stroke:black;" d="M381,-188C387,-188 393,-194 393,-200"/>
<polyline style="fill:none;stroke:black;" points="393,-200 393,-260 "/>
<path style="fill:none;stroke:black;" d="M393,-260C393,-266 387,-272 381,-272"/>
<polyline style="fill:none;stroke:black;" points="381,-272 270,-272 "/>
<path style="fill:none;stroke:black;" d="M270,-272C264,-272 258,-266 258,-260"/>
<polyline style="fill:none;stroke:black;" points="258,-260 258,-200 "/>
<path style="fill:none;stroke:black;" d="M258,-200C258,-194 264,-188 270,-188"/>
<text text-anchor="middle" x="325" y="-254.9" style="font-family:Times New Roman;font-size:11.00;">LitmusTestPage</text>
<polyline style="fill:none;stroke:black;" points="258,-247 393,-247 "/>
<text text-anchor="start" x="265.5" y="-229.9" style="font-family:Times New Roman;font-size:11.00;">url :string</text>
<text text-anchor="start" x="265.5" y="-212.9" style="font-family:Times New Roman;font-size:11.00;">created_at :datetime</text>
<text text-anchor="start" x="265.5" y="-195.9" style="font-family:Times New Roman;font-size:11.00;">updated_at :datetime</text>
</g>
<!-- LitmusTestPage&#45;&gt;JavascriptTestResult -->
<g id="edge4" class="edge"><title>LitmusTestPage&#45;&gt;JavascriptTestResult</title>
<path style="fill:none;stroke:black;" d="M325,-178C325,-173 325,-167 325,-160"/>
<polygon style="fill:black;stroke:black;" points="325,-178 320.5,-188 325,-183 325,-188 325,-188 325,-188 325,-183 329.5,-188 325,-178 325,-178"/>
<ellipse style="fill:black;stroke:black;" cx="325" cy="-156" rx="4" ry="4"/>
</g>
<!-- LitmusTestRun -->
<g id="node5" class="node"><title>LitmusTestRun</title>
<polyline style="fill:none;stroke:black;" points="262,-308 389,-308 "/>
<path style="fill:none;stroke:black;" d="M389,-308C395,-308 401,-314 401,-320"/>
<polyline style="fill:none;stroke:black;" points="401,-320 401,-431 "/>
<path style="fill:none;stroke:black;" d="M401,-431C401,-437 395,-443 389,-443"/>
<polyline style="fill:none;stroke:black;" points="389,-443 262,-443 "/>
<path style="fill:none;stroke:black;" d="M262,-443C256,-443 250,-437 250,-431"/>
<polyline style="fill:none;stroke:black;" points="250,-431 250,-320 "/>
<path style="fill:none;stroke:black;" d="M250,-320C250,-314 256,-308 262,-308"/>
<text text-anchor="middle" x="325" y="-425.9" style="font-family:Times New Roman;font-size:11.00;">LitmusTestRun</text>
<polyline style="fill:none;stroke:black;" points="250,-418 401,-418 "/>
<text text-anchor="start" x="257.5" y="-401.4" style="font-family:Times New Roman;font-size:11.00;">label :string</text>
<text text-anchor="start" x="257.5" y="-384.4" style="font-family:Times New Roman;font-size:11.00;">external_vendor :string</text>
<text text-anchor="start" x="257.5" y="-367.4" style="font-family:Times New Roman;font-size:11.00;">use_defaults :boolean</text>
<text text-anchor="start" x="257.5" y="-350.4" style="font-family:Times New Roman;font-size:11.00;">not_external :boolean</text>
<text text-anchor="start" x="257.5" y="-333.4" style="font-family:Times New Roman;font-size:11.00;">created_at :datetime</text>
<text text-anchor="start" x="257.5" y="-316.4" style="font-family:Times New Roman;font-size:11.00;">updated_at :datetime</text>
</g>
<!-- LitmusTestRun&#45;&gt;LitmusTestPage -->
<g id="edge6" class="edge"><title>LitmusTestRun&#45;&gt;LitmusTestPage</title>
<path style="fill:none;stroke:black;" d="M325,-298C325,-292 325,-286 325,-280"/>
<polygon style="fill:black;stroke:black;" points="325,-298 320.5,-308 325,-303 325,-308 325,-308 325,-308 325,-303 329.5,-308 325,-298 325,-298"/>
<ellipse style="fill:black;stroke:black;" cx="325" cy="-276" rx="4" ry="4"/>
</g>
<!-- UserAgent -->
<g id="node6" class="node"><title>UserAgent</title>
<polyline style="fill:none;stroke:black;" points="646,-325 757,-325 "/>
<path style="fill:none;stroke:black;" d="M757,-325C763,-325 769,-331 769,-337"/>
<polyline style="fill:none;stroke:black;" points="769,-337 769,-414 "/>
<path style="fill:none;stroke:black;" d="M769,-414C769,-420 763,-426 757,-426"/>
<polyline style="fill:none;stroke:black;" points="757,-426 646,-426 "/>
<path style="fill:none;stroke:black;" d="M646,-426C640,-426 634,-420 634,-414"/>
<polyline style="fill:none;stroke:black;" points="634,-414 634,-337 "/>
<path style="fill:none;stroke:black;" d="M634,-337C634,-331 640,-325 646,-325"/>
<text text-anchor="middle" x="701" y="-408.9" style="font-family:Times New Roman;font-size:11.00;">UserAgent</text>
<polyline style="fill:none;stroke:black;" points="634,-401 769,-401 "/>
<text text-anchor="start" x="641.5" y="-384.4" style="font-family:Times New Roman;font-size:11.00;">ua_string :string</text>
<text text-anchor="start" x="641.5" y="-367.4" style="font-family:Times New Roman;font-size:11.00;">family :string</text>
<text text-anchor="start" x="641.5" y="-350.4" style="font-family:Times New Roman;font-size:11.00;">created_at :datetime</text>
<text text-anchor="start" x="641.5" y="-333.4" style="font-family:Times New Roman;font-size:11.00;">updated_at :datetime</text>
</g>
<!-- ActiveResource::Base -->
<g id="node7" class="node"><title>ActiveResource::Base</title>
<ellipse style="fill:none;stroke:black;" cx="517" cy="-376" rx="98.8688" ry="18"/>
<text text-anchor="middle" x="517" y="-371.9" style="font-family:Times New Roman;font-size:11.00;">ActiveResource::Base</text>
</g>
<!-- ActiveResource::Base&#45;&gt;LitmusResource -->
<g id="edge2" class="edge"><title>ActiveResource::Base&#45;&gt;LitmusResource</title>
<path style="fill:none;stroke:black;" d="M517,-348C517,-321 517,-280 517,-255"/>
<polygon style="fill:none;stroke:black;" points="513.5,-348 517,-358 520.5,-348 513.5,-348"/>
</g>
</g>
</svg>
